<svg xmlns="http://www.w3.org/2000/svg" width="1150" height="152" font-family="-apple-system,Segoe UI,Helvetica,Arial,sans-serif">
<rect width="1150" height="152" fill="#ffffff"/>
<text x="20" y="30" font-size="18" font-weight="600" fill="#1f2328">ETL uptime &#8212; last 90 days</text>
<text x="20" y="50" font-size="12" fill="#656d76">1 script(s) &#183; 1 green / 0 red this run &#183; generated 2026-06-05</text>
<text x="218" y="83" font-size="12" fill="#1f2328" text-anchor="end">example</text>
<rect x="230" y="70" width="8" height="18" rx="1.5" fill="#d0d7de"/>
<rect x="240" y="70" width="8" height="18" rx="1.5" fill="#d0d7de"/>
<rect x="250" y="70" width="8" height="18" rx="1.5" fill="#d0d7de"/>
<rect x="260" y="70" width="8" height="18" rx="1.5" fill="#d0d7de"/>
<rect x="270" y="70" width="8" height="18" rx="1.5" fill="#d0d7de"/>
<rect x="280" y="70" width="8" height="18" rx="1.5" fill="#d0d7de"/>
<rect x="290" y="70" width="8" height="18" rx="1.5" fill="#d0d7de"/>
<rect x="300" y="70" width="8" height="18" rx="1.5" fill="#d0d7de"/>
<rect x="310" y="70" width="8" height="18" rx="1.5" fill="#d0d7de"/>
<rect x="320" y="70" width="8" height="18" rx="1.5" fill="#d0d7de"/>
<rect x="330" y="70" width="8" height="18" rx="1.5" fill="#d0d7de"/>
<rect x="340" y="70" width="8" height="18" rx="1.5" fill="#d0d7de"/>
<rect x="350" y="70" width="8" height="18" rx="1.5" fill="#d0d7de"/>
<rect x="360" y="70" width="8" height="18" rx="1.5" fill="#d0d7de"/>
<rect x="370" y="70" width="8" height="18" rx="1.5" fill="#d0d7de"/>
<rect x="380" y="70" width="8" height="18" rx="1.5" fill="#d0d7de"/>
<rect x="390" y="70" width="8" height="18" rx="1.5" fill="#d0d7de"/>
<rect x="400" y="70" width="8" height="18" rx="1.5" fill="#d0d7de"/>
<rect x="410" y="70" width="8" height="18" rx="1.5" fill="#d0d7de"/>
<rect x="420" y="70" width="8" height="18" rx="1.5" fill="#d0d7de"/>
<rect x="430" y="70" width="8" height="18" rx="1.5" fill="#d0d7de"/>
<rect x="440" y="70" width="8" height="18" rx="1.5" fill="#d0d7de"/>
<rect x="450" y="70" width="8" height="18" rx="1.5" fill="#d0d7de"/>
<rect x="460" y="70" width="8" height="18" rx="1.5" fill="#d0d7de"/>
<rect x="470" y="70" width="8" height="18" rx="1.5" fill="#d0d7de"/>
<rect x="480" y="70" width="8" height="18" rx="1.5" fill="#d0d7de"/>
<rect x="490" y="70" width="8" height="18" rx="1.5" fill="#d0d7de"/>
<rect x="500" y="70" width="8" height="18" rx="1.5" fill="#d0d7de"/>
<rect x="510" y="70" width="8" height="18" rx="1.5" fill="#d0d7de"/>
<rect x="520" y="70" width="8" height="18" rx="1.5" fill="#d0d7de"/>
<rect x="530" y="70" width="8" height="18" rx="1.5" fill="#d0d7de"/>
<rect x="540" y="70" width="8" height="18" rx="1.5" fill="#d0d7de"/>
<rect x="550" y="70" width="8" height="18" rx="1.5" fill="#d0d7de"/>
<rect x="560" y="70" width="8" height="18" rx="1.5" fill="#d0d7de"/>
<rect x="570" y="70" width="8" height="18" rx="1.5" fill="#d0d7de"/>
<rect x="580" y="70" width="8" height="18" rx="1.5" fill="#d0d7de"/>
<rect x="590" y="70" width="8" height="18" rx="1.5" fill="#d0d7de"/>
<rect x="600" y="70" width="8" height="18" rx="1.5" fill="#d0d7de"/>
<rect x="610" y="70" width="8" height="18" rx="1.5" fill="#d0d7de"/>
<rect x="620" y="70" width="8" height="18" rx="1.5" fill="#d0d7de"/>
<rect x="630" y="70" width="8" height="18" rx="1.5" fill="#d0d7de"/>
<rect x="640" y="70" width="8" height="18" rx="1.5" fill="#d0d7de"/>
<rect x="650" y="70" width="8" height="18" rx="1.5" fill="#d0d7de"/>
<rect x="660" y="70" width="8" height="18" rx="1.5" fill="#d0d7de"/>
<rect x="670" y="70" width="8" height="18" rx="1.5" fill="#d0d7de"/>
<rect x="680" y="70" width="8" height="18" rx="1.5" fill="#d0d7de"/>
<rect x="690" y="70" width="8" height="18" rx="1.5" fill="#d0d7de"/>
<rect x="700" y="70" width="8" height="18" rx="1.5" fill="#d0d7de"/>
<rect x="710" y="70" width="8" height="18" rx="1.5" fill="#d0d7de"/>
<rect x="720" y="70" width="8" height="18" rx="1.5" fill="#d0d7de"/>
<rect x="730" y="70" width="8" height="18" rx="1.5" fill="#d0d7de"/>
<rect x="740" y="70" width="8" height="18" rx="1.5" fill="#d0d7de"/>
<rect x="750" y="70" width="8" height="18" rx="1.5" fill="#d0d7de"/>
<rect x="760" y="70" width="8" height="18" rx="1.5" fill="#d0d7de"/>
<rect x="770" y="70" width="8" height="18" rx="1.5" fill="#d0d7de"/>
<rect x="780" y="70" width="8" height="18" rx="1.5" fill="#d0d7de"/>
<rect x="790" y="70" width="8" height="18" rx="1.5" fill="#d0d7de"/>
<rect x="800" y="70" width="8" height="18" rx="1.5" fill="#d0d7de"/>
<rect x="810" y="70" width="8" height="18" rx="1.5" fill="#d0d7de"/>
<rect x="820" y="70" width="8" height="18" rx="1.5" fill="#d0d7de"/>
<rect x="830" y="70" width="8" height="18" rx="1.5" fill="#d0d7de"/>
<rect x="840" y="70" width="8" height="18" rx="1.5" fill="#d0d7de"/>
<rect x="850" y="70" width="8" height="18" rx="1.5" fill="#d0d7de"/>
<rect x="860" y="70" width="8" height="18" rx="1.5" fill="#d0d7de"/>
<rect x="870" y="70" width="8" height="18" rx="1.5" fill="#d0d7de"/>
<rect x="880" y="70" width="8" height="18" rx="1.5" fill="#d0d7de"/>
<rect x="890" y="70" width="8" height="18" rx="1.5" fill="#d0d7de"/>
<rect x="900" y="70" width="8" height="18" rx="1.5" fill="#d0d7de"/>
<rect x="910" y="70" width="8" height="18" rx="1.5" fill="#d0d7de"/>
<rect x="920" y="70" width="8" height="18" rx="1.5" fill="#d0d7de"/>
<rect x="930" y="70" width="8" height="18" rx="1.5" fill="#d0d7de"/>
<rect x="940" y="70" width="8" height="18" rx="1.5" fill="#d0d7de"/>
<rect x="950" y="70" width="8" height="18" rx="1.5" fill="#d0d7de"/>
<rect x="960" y="70" width="8" height="18" rx="1.5" fill="#d0d7de"/>
<rect x="970" y="70" width="8" height="18" rx="1.5" fill="#d0d7de"/>
<rect x="980" y="70" width="8" height="18" rx="1.5" fill="#d0d7de"/>
<rect x="990" y="70" width="8" height="18" rx="1.5" fill="#d0d7de"/>
<rect x="1000" y="70" width="8" height="18" rx="1.5" fill="#d0d7de"/>
<rect x="1010" y="70" width="8" height="18" rx="1.5" fill="#d0d7de"/>
<rect x="1020" y="70" width="8" height="18" rx="1.5" fill="#d0d7de"/>
<rect x="1030" y="70" width="8" height="18" rx="1.5" fill="#d0d7de"/>
<rect x="1040" y="70" width="8" height="18" rx="1.5" fill="#d0d7de"/>
<rect x="1050" y="70" width="8" height="18" rx="1.5" fill="#d0d7de"/>
<rect x="1060" y="70" width="8" height="18" rx="1.5" fill="#d0d7de"/>
<rect x="1070" y="70" width="8" height="18" rx="1.5" fill="#d0d7de"/>
<rect x="1080" y="70" width="8" height="18" rx="1.5" fill="#d0d7de"/>
<rect x="1090" y="70" width="8" height="18" rx="1.5" fill="#d0d7de"/>
<rect x="1100" y="70" width="8" height="18" rx="1.5" fill="#d0d7de"/>
<rect x="1110" y="70" width="8" height="18" rx="1.5" fill="#d0d7de"/>
<rect x="1120" y="70" width="8" height="18" rx="1.5" fill="#2ea44f"/>
<text x="230" y="110" font-size="11" fill="#656d76">2026-03-08</text>
<text x="1130" y="110" font-size="11" fill="#656d76" text-anchor="end">2026-06-05</text>
<rect x="230" y="122" width="12" height="12" rx="1.5" fill="#2ea44f"/>
<text x="246" y="132" font-size="11" fill="#656d76">success</text>
<rect x="320" y="122" width="12" height="12" rx="1.5" fill="#cf222e"/>
<text x="336" y="132" font-size="11" fill="#656d76">failure</text>
<rect x="410" y="122" width="12" height="12" rx="1.5" fill="#d0d7de"/>
<text x="426" y="132" font-size="11" fill="#656d76">no run</text>
</svg>
